<svg xmlns="http://www.w3.org/2000/svg" viewBox="0 0 400 200">
  <defs>
    <linearGradient id="g1" x1="0%" y1="0%" x2="100%" y2="100%">
      <stop offset="0%" style="stop-color:#bd93f9;stop-opacity:0.05"/>
      <stop offset="100%" style="stop-color:#0A192F;stop-opacity:0.08"/>
    </linearGradient>
    <linearGradient id="g2" x1="0%" y1="0%" x2="100%" y2="100%">
      <stop offset="0%" style="stop-color:#7c5cbf"/>
      <stop offset="100%" style="stop-color:#bd93f9"/>
    </linearGradient>
  </defs>
  <rect width="400" height="200" rx="12" fill="url(#g1)"/>
  <!-- Brain outline -->
  <ellipse cx="200" cy="85" rx="45" ry="40" fill="none" stroke="url(#g2)" stroke-width="2" opacity="0.5"/>
  <!-- Neural connections -->
  <circle cx="185" cy="75" r="4" fill="#7c5cbf" opacity="0.4"/>
  <circle cx="215" cy="75" r="4" fill="#7c5cbf" opacity="0.4"/>
  <circle cx="200" cy="60" r="3" fill="#bd93f9" opacity="0.5"/>
  <circle cx="175" cy="90" r="3" fill="#bd93f9" opacity="0.3"/>
  <circle cx="225" cy="90" r="3" fill="#bd93f9" opacity="0.3"/>
  <circle cx="200" cy="100" r="4" fill="#7c5cbf" opacity="0.4"/>
  <!-- Neural lines -->
  <line x1="185" y1="75" x2="200" y2="60" stroke="#bd93f9" stroke-width="1" opacity="0.4"/>
  <line x1="215" y1="75" x2="200" y2="60" stroke="#bd93f9" stroke-width="1" opacity="0.4"/>
  <line x1="185" y1="75" x2="175" y2="90" stroke="#7c5cbf" stroke-width="1" opacity="0.3"/>
  <line x1="215" y1="75" x2="225" y2="90" stroke="#7c5cbf" stroke-width="1" opacity="0.3"/>
  <line x1="185" y1="75" x2="200" y2="100" stroke="#bd93f9" stroke-width="1" opacity="0.3"/>
  <line x1="215" y1="75" x2="200" y2="100" stroke="#bd93f9" stroke-width="1" opacity="0.3"/>
  <!-- Data flow lines -->
  <path d="M145 130 Q172 120, 200 130 Q228 140, 260 130" stroke="#7c5cbf" stroke-width="1.5" fill="none" opacity="0.3"/>
  <path d="M135 145 Q172 135, 200 145 Q228 155, 270 145" stroke="#bd93f9" stroke-width="1" fill="none" opacity="0.2"/>
  <!-- Data points -->
  <circle cx="160" cy="132" r="2.5" fill="#7c5cbf" opacity="0.4"/>
  <circle cx="200" cy="130" r="3" fill="#bd93f9" opacity="0.5"/>
  <circle cx="240" cy="132" r="2.5" fill="#7c5cbf" opacity="0.4"/>
  <!-- Decorative -->
  <circle cx="90" cy="50" r="2" fill="#64ffda" opacity="0.2"/>
  <circle cx="320" cy="60" r="3" fill="#bd93f9" opacity="0.2"/>
  <circle cx="85" cy="160" r="2.5" fill="#7c5cbf" opacity="0.15"/>
  <circle cx="330" cy="155" r="2" fill="#64ffda" opacity="0.2"/>
</svg>
