<svg xmlns="http://www.w3.org/2000/svg" viewBox="0 0 400 200">
  <defs>
    <linearGradient id="g1" x1="0%" y1="0%" x2="100%" y2="100%">
      <stop offset="0%" style="stop-color:#0A192F;stop-opacity:0.04"/>
      <stop offset="100%" style="stop-color:#0d9373;stop-opacity:0.08"/>
    </linearGradient>
    <linearGradient id="g2" x1="0%" y1="0%" x2="100%" y2="100%">
      <stop offset="0%" style="stop-color:#0d9373"/>
      <stop offset="100%" style="stop-color:#64ffda"/>
    </linearGradient>
  </defs>
  <rect width="400" height="200" rx="12" fill="url(#g1)"/>
  <!-- Code window -->
  <rect x="130" y="35" width="140" height="90" rx="6" fill="none" stroke="url(#g2)" stroke-width="1.5" opacity="0.4"/>
  <line x1="130" y1="50" x2="270" y2="50" stroke="#0d9373" stroke-width="1" opacity="0.3"/>
  <!-- Window dots -->
  <circle cx="140" cy="43" r="2.5" fill="#ff5f56" opacity="0.4"/>
  <circle cx="150" cy="43" r="2.5" fill="#ffbd2e" opacity="0.4"/>
  <circle cx="160" cy="43" r="2.5" fill="#27c93f" opacity="0.4"/>
  <!-- Code lines -->
  <line x1="140" y1="62" x2="195" y2="62" stroke="#0d9373" stroke-width="2" opacity="0.3"/>
  <line x1="148" y1="74" x2="210" y2="74" stroke="#0d9373" stroke-width="2" opacity="0.2"/>
  <line x1="148" y1="86" x2="185" y2="86" stroke="#bd93f9" stroke-width="2" opacity="0.25"/>
  <line x1="140" y1="98" x2="220" y2="98" stroke="#0d9373" stroke-width="2" opacity="0.2"/>
  <line x1="140" y1="110" x2="175" y2="110" stroke="#bd93f9" stroke-width="2" opacity="0.15"/>
  <!-- Mobile phone -->
  <rect x="285" y="50" width="40" height="70" rx="6" fill="none" stroke="url(#g2)" stroke-width="1.5" opacity="0.35"/>
  <line x1="298" y1="110" x2="312" y2="110" stroke="#0d9373" stroke-width="1.5" opacity="0.3"/>
  <rect x="292" y="62" width="26" height="6" rx="2" fill="#0d9373" opacity="0.15"/>
  <rect x="292" y="72" width="18" height="4" rx="1" fill="#0d9373" opacity="0.1"/>
  <rect x="292" y="80" width="26" height="16" rx="2" fill="#0d9373" opacity="0.08"/>
  <!-- Gear -->
  <circle cx="105" cy="100" r="15" fill="none" stroke="#0d9373" stroke-width="1.5" opacity="0.25"/>
  <circle cx="105" cy="100" r="6" fill="none" stroke="#0d9373" stroke-width="1" opacity="0.3"/>
  <!-- Connection -->
  <path d="M270 80 Q278 80, 285 75" stroke="#64ffda" stroke-width="1" fill="none" opacity="0.3" stroke-dasharray="4,3"/>
  <!-- Decorative -->
  <circle cx="80" cy="45" r="2" fill="#bd93f9" opacity="0.2"/>
  <circle cx="340" cy="150" r="3" fill="#64ffda" opacity="0.2"/>
  <circle cx="90" cy="165" r="2" fill="#0d9373" opacity="0.15"/>
</svg>
