<svg xmlns="http://www.w3.org/2000/svg" viewBox="0 0 400 200">
  <defs>
    <linearGradient id="g1" x1="0%" y1="0%" x2="100%" y2="100%">
      <stop offset="0%" style="stop-color:#0A192F;stop-opacity:0.05"/>
      <stop offset="100%" style="stop-color:#64ffda;stop-opacity:0.1"/>
    </linearGradient>
    <linearGradient id="g2" x1="0%" y1="0%" x2="100%" y2="100%">
      <stop offset="0%" style="stop-color:#0d9373"/>
      <stop offset="100%" style="stop-color:#64ffda"/>
    </linearGradient>
  </defs>
  <rect width="400" height="200" rx="12" fill="url(#g1)"/>
  <!-- Cloud shape -->
  <ellipse cx="200" cy="90" rx="60" ry="35" fill="none" stroke="url(#g2)" stroke-width="2" opacity="0.6"/>
  <ellipse cx="170" cy="95" rx="40" ry="28" fill="none" stroke="url(#g2)" stroke-width="1.5" opacity="0.4"/>
  <ellipse cx="235" cy="95" rx="35" ry="25" fill="none" stroke="url(#g2)" stroke-width="1.5" opacity="0.4"/>
  <!-- Server nodes -->
  <rect x="155" y="115" width="18" height="22" rx="3" fill="#0d9373" opacity="0.2" stroke="#0d9373" stroke-width="1"/>
  <rect x="180" y="115" width="18" height="22" rx="3" fill="#0d9373" opacity="0.3" stroke="#0d9373" stroke-width="1"/>
  <rect x="205" y="115" width="18" height="22" rx="3" fill="#0d9373" opacity="0.2" stroke="#0d9373" stroke-width="1"/>
  <rect x="230" y="115" width="18" height="22" rx="3" fill="#0d9373" opacity="0.15" stroke="#0d9373" stroke-width="1"/>
  <!-- Connection lines -->
  <line x1="164" y1="115" x2="200" y2="90" stroke="#64ffda" stroke-width="1" opacity="0.3"/>
  <line x1="189" y1="115" x2="200" y2="90" stroke="#64ffda" stroke-width="1" opacity="0.4"/>
  <line x1="214" y1="115" x2="200" y2="90" stroke="#64ffda" stroke-width="1" opacity="0.3"/>
  <line x1="239" y1="115" x2="200" y2="90" stroke="#64ffda" stroke-width="1" opacity="0.25"/>
  <!-- Decorative dots -->
  <circle cx="100" cy="60" r="3" fill="#bd93f9" opacity="0.3"/>
  <circle cx="310" cy="80" r="4" fill="#64ffda" opacity="0.25"/>
  <circle cx="80" cy="150" r="2" fill="#0d9373" opacity="0.2"/>
  <circle cx="330" cy="140" r="3" fill="#bd93f9" opacity="0.2"/>
  <!-- Arrow/deploy -->
  <path d="M200 65 L200 55 L195 60 M200 55 L205 60" stroke="#0d9373" stroke-width="1.5" fill="none" opacity="0.5"/>
</svg>
